# WaveFront *.obj file (generated by Autodesk ATF)

mtllib turret.mtl

o Solid1

v 245.500000 20.000000 55.000000
v 245.500000 35.000000 40.000000
v 118.500000 35.000000 40.000000
v 118.500000 20.000000 55.000000
v 245.500000 -20.000000 55.000000
v 245.500000 -35.000000 40.000000
v 245.500000 -35.000000 0.000000
v 245.500000 35.000000 0.000000
v 118.500000 -20.000000 55.000000
v 118.500000 -35.000000 40.000000
v 118.500000 35.000000 0.000000
v 118.500000 -35.000000 0.000000
v 118.500000 39.000000 0.000000
v 0.000000 39.000000 0.000000
v 0.000000 39.000000 60.000000
v 118.500000 39.000000 60.000000
v 118.500000 -39.000000 60.000000
v 118.500000 -39.000000 0.000000
v 0.000000 -39.000000 0.000000
v 0.000000 -39.000000 60.000000
v -6.100944 38.519845 0.000000
v -12.051663 37.091204 0.000000
v -17.705629 34.749254 0.000000
v -22.923625 31.551663 0.000000
v -27.577164 27.577164 0.000000
v -31.551663 22.923625 0.000000
v -34.749254 17.705629 0.000000
v -37.091204 12.051663 0.000000
v -38.519845 6.100944 0.000000
v -39.000000 0.000000 0.000000
v -38.519845 -6.100944 0.000000
v -37.091204 -12.051663 0.000000
v -34.749254 -17.705629 0.000000
v -31.551663 -22.923625 0.000000
v -27.577164 -27.577164 0.000000
v -22.923625 -31.551663 0.000000
v -17.705629 -34.749254 0.000000
v -12.051663 -37.091204 0.000000
v -6.100944 -38.519845 0.000000
v -6.100944 -38.519845 60.000000
v -12.051663 -37.091204 60.000000
v -17.705629 -34.749254 60.000000
v -22.923625 -31.551663 60.000000
v -27.577164 -27.577164 60.000000
v -31.551663 -22.923625 60.000000
v -34.749254 -17.705629 60.000000
v -37.091204 -12.051663 60.000000
v -38.519845 -6.100944 60.000000
v -39.000000 0.000000 60.000000
v -38.519845 6.100944 60.000000
v -37.091204 12.051663 60.000000
v -34.749254 17.705629 60.000000
v -31.551663 22.923625 60.000000
v -27.577164 27.577164 60.000000
v -22.923625 31.551663 60.000000
v -17.705629 34.749254 60.000000
v -12.051663 37.091204 60.000000
v -6.100944 38.519845 60.000000
vt 3.175000 1.060660 0.000000
vt -9.525000 1.060660 0.000000
vt 3.175000 -1.060660 0.000000
vt -9.525000 -1.060660 0.000000
vt 5.500000 5.500000 0.000000
vt 1.500000 5.500000 0.000000
vt 7.000000 4.000000 0.000000
vt 0.000000 4.000000 0.000000
vt 7.000000 0.000000 0.000000
vt 0.000000 0.000000 0.000000
vt 6.350000 2.000000 0.000000
vt -6.350000 2.000000 0.000000
vt 6.350000 -2.000000 0.000000
vt -6.350000 -2.000000 0.000000
vt 9.525000 1.060660 0.000000
vt -3.175000 1.060660 0.000000
vt 9.525000 -1.060660 0.000000
vt -3.175000 -1.060660 0.000000
vt 12.700000 4.000000 0.000000
vt -0.000000 4.000000 0.000000
vt 12.700000 0.000000 0.000000
vt -0.000000 0.000000 0.000000
vt 12.700000 4.000000 0.000000
vt 0.000000 4.000000 0.000000
vt 12.700000 0.000000 0.000000
vt 0.000000 0.000000 0.000000
vt -0.000000 0.000000 0.000000
vt 11.850000 0.000000 0.000000
vt -0.000000 6.000000 0.000000
vt 11.850000 6.000000 0.000000
vt 7.400000 0.000000 0.000000
vt 7.800000 0.000000 0.000000
vt 7.400000 4.000000 0.000000
vt 7.800000 6.000000 0.000000
vt 5.900000 5.500000 0.000000
vt 0.000000 6.000000 0.000000
vt 1.900000 5.500000 0.000000
vt 0.400000 4.000000 0.000000
vt 0.000000 0.000000 0.000000
vt 0.400000 0.000000 0.000000
vt 0.000000 0.000000 0.000000
vt 11.850000 0.000000 0.000000
vt 0.000000 6.000000 0.000000
vt 11.850000 6.000000 0.000000
vt -6.000000 0.000000 0.000000
vt -0.000000 0.000000 0.000000
vt -6.000000 0.612611 0.000000
vt -0.000000 0.612611 0.000000
vt -6.000000 1.225221 0.000000
vt -0.000000 1.225221 0.000000
vt -6.000000 1.837832 0.000000
vt -0.000000 1.837832 0.000000
vt -6.000000 2.450442 0.000000
vt -0.000000 2.450442 0.000000
vt -6.000000 3.063053 0.000000
vt -0.000000 3.063053 0.000000
vt -6.000000 3.675663 0.000000
vt -0.000000 3.675663 0.000000
vt -6.000000 4.288274 0.000000
vt -0.000000 4.288274 0.000000
vt -6.000000 4.900885 0.000000
vt -0.000000 4.900885 0.000000
vt -6.000000 5.513495 0.000000
vt -0.000000 5.513495 0.000000
vt -6.000000 6.126106 0.000000
vt -0.000000 6.126106 0.000000
vt -6.000000 6.738716 0.000000
vt -0.000000 6.738716 0.000000
vt -6.000000 7.351327 0.000000
vt -0.000000 7.351327 0.000000
vt -6.000000 7.963937 0.000000
vt -0.000000 7.963937 0.000000
vt -6.000000 8.576548 0.000000
vt -0.000000 8.576548 0.000000
vt -6.000000 9.189159 0.000000
vt -0.000000 9.189159 0.000000
vt -6.000000 9.801769 0.000000
vt -0.000000 9.801769 0.000000
vt -6.000000 10.414380 0.000000
vt -0.000000 10.414380 0.000000
vt -6.000000 11.026990 0.000000
vt -0.000000 11.026990 0.000000
vt -6.000000 11.639601 0.000000
vt -0.000000 11.639601 0.000000
vt -6.000000 12.252211 0.000000
vt -0.000000 12.252211 0.000000
vt 0.732832 3.851985 0.000000
vt 0.137760 3.709120 0.000000
vt 1.342926 3.900000 0.000000
vt -0.427637 3.474925 0.000000
vt -0.949436 3.155166 0.000000
vt -1.414790 2.757716 0.000000
vt -1.812240 2.292362 0.000000
vt -2.131999 1.770563 0.000000
vt -2.366194 1.205166 0.000000
vt -2.509058 0.610094 0.000000
vt -2.557074 0.000000 0.000000
vt -2.509058 -0.610094 0.000000
vt 1.342926 -3.900000 0.000000
vt 13.192926 -3.900000 0.000000
vt 13.192926 3.900000 0.000000
vt -2.366194 -1.205166 0.000000
vt -2.131999 -1.770563 0.000000
vt -1.812240 -2.292362 0.000000
vt -1.414790 -2.757716 0.000000
vt -0.949436 -3.155166 0.000000
vt -0.427637 -3.474925 0.000000
vt 0.137760 -3.709120 0.000000
vt 0.732832 -3.851985 0.000000
vt -0.732832 -3.851985 0.000000
vt -0.137760 -3.709120 0.000000
vt -1.342926 -3.900000 0.000000
vt 0.427637 -3.474925 0.000000
vt 0.949436 -3.155166 0.000000
vt 1.414790 -2.757716 0.000000
vt -13.192926 -3.500000 0.000000
vt -13.192926 -3.900000 0.000000
vt 1.812240 -2.292362 0.000000
vt 2.131999 -1.770563 0.000000
vt 2.366194 -1.205166 0.000000
vt 2.509058 -0.610094 0.000000
vt 2.557074 0.000000 0.000000
vt -13.192926 3.500000 0.000000
vt 2.509058 0.610094 0.000000
vt 2.366194 1.205166 0.000000
vt 2.131999 1.770563 0.000000
vt 1.812240 2.292362 0.000000
vt 1.414790 2.757716 0.000000
vt -1.342926 3.900000 0.000000
vt 0.949436 3.155166 0.000000
vt 0.427637 3.474925 0.000000
vt -0.137760 3.709120 0.000000
vt -0.732832 3.851985 0.000000
vt -13.192926 3.900000 0.000000
vt -25.892926 3.500000 0.000000
vt -25.892926 -3.500000 0.000000
vn 0.000000 0.070711 0.070711
vn 0.000000 0.070711 0.070711
vn 0.000000 0.070711 0.070711
vn 0.000000 0.070711 0.070711
vn 0.100000 0.000000 0.000000
vn 0.100000 0.000000 0.000000
vn 0.100000 0.000000 0.000000
vn 0.100000 0.000000 0.000000
vn 0.100000 0.000000 0.000000
vn 0.100000 0.000000 0.000000
vn 0.000000 0.000000 0.100000
vn 0.000000 0.000000 0.100000
vn 0.000000 0.000000 0.100000
vn 0.000000 0.000000 0.100000
vn 0.000000 -0.070711 0.070711
vn 0.000000 -0.070711 0.070711
vn 0.000000 -0.070711 0.070711
vn 0.000000 -0.070711 0.070711
vn 0.000000 0.100000 0.000000
vn 0.000000 0.100000 0.000000
vn 0.000000 0.100000 0.000000
vn 0.000000 0.100000 0.000000
vn 0.000000 -0.100000 0.000000
vn 0.000000 -0.100000 0.000000
vn 0.000000 -0.100000 0.000000
vn 0.000000 -0.100000 0.000000
vn 0.000000 0.100000 0.000000
vn 0.000000 0.100000 0.000000
vn 0.000000 0.100000 0.000000
vn 0.000000 0.100000 0.000000
vn 0.100000 0.000000 0.000000
vn 0.100000 0.000000 0.000000
vn 0.100000 0.000000 0.000000
vn 0.100000 0.000000 0.000000
vn 0.100000 0.000000 0.000000
vn 0.100000 0.000000 0.000000
vn 0.100000 0.000000 0.000000
vn 0.100000 0.000000 0.000000
vn 0.100000 0.000000 0.000000
vn 0.100000 0.000000 0.000000
vn 0.000000 -0.100000 0.000000
vn 0.000000 -0.100000 0.000000
vn 0.000000 -0.100000 0.000000
vn 0.000000 -0.100000 0.000000
vn -0.015643 0.098769 -0.000000
vn -0.015643 0.098769 -0.000000
vn -0.030902 0.095106 -0.000000
vn -0.030902 0.095106 -0.000000
vn -0.045399 0.089101 -0.000000
vn -0.045399 0.089101 -0.000000
vn -0.058779 0.080902 -0.000000
vn -0.058779 0.080902 -0.000000
vn -0.070711 0.070711 -0.000000
vn -0.070711 0.070711 -0.000000
vn -0.080902 0.058779 -0.000000
vn -0.080902 0.058779 -0.000000
vn -0.089101 0.045399 -0.000000
vn -0.089101 0.045399 -0.000000
vn -0.095106 0.030902 -0.000000
vn -0.095106 0.030902 -0.000000
vn -0.098769 0.015643 -0.000000
vn -0.098769 0.015643 -0.000000
vn -0.100000 0.000000 -0.000000
vn -0.100000 0.000000 -0.000000
vn -0.098769 -0.015643 0.000000
vn -0.098769 -0.015643 0.000000
vn -0.095106 -0.030902 0.000000
vn -0.095106 -0.030902 0.000000
vn -0.089101 -0.045399 0.000000
vn -0.089101 -0.045399 0.000000
vn -0.080902 -0.058779 0.000000
vn -0.080902 -0.058779 0.000000
vn -0.070711 -0.070711 0.000000
vn -0.070711 -0.070711 0.000000
vn -0.058779 -0.080902 0.000000
vn -0.058779 -0.080902 0.000000
vn -0.045399 -0.089101 0.000000
vn -0.045399 -0.089101 0.000000
vn -0.030902 -0.095106 0.000000
vn -0.030902 -0.095106 0.000000
vn -0.015643 -0.098769 0.000000
vn -0.015643 -0.098769 0.000000
vn 0.000000 0.000000 0.100000
vn 0.000000 0.000000 0.100000
vn 0.000000 0.000000 0.100000
vn 0.000000 0.000000 0.100000
vn 0.000000 0.000000 0.100000
vn 0.000000 0.000000 0.100000
vn 0.000000 0.000000 0.100000
vn 0.000000 0.000000 0.100000
vn 0.000000 0.000000 0.100000
vn 0.000000 0.000000 0.100000
vn 0.000000 0.000000 0.100000
vn 0.000000 0.000000 0.100000
vn 0.000000 0.000000 0.100000
vn 0.000000 0.000000 0.100000
vn 0.000000 0.000000 0.100000
vn 0.000000 0.000000 0.100000
vn 0.000000 0.000000 0.100000
vn 0.000000 0.000000 0.100000
vn 0.000000 0.000000 0.100000
vn 0.000000 0.000000 0.100000
vn 0.000000 0.000000 0.100000
vn 0.000000 0.000000 0.100000
vn 0.000000 0.000000 0.100000
vn 0.000000 0.000000 -0.100000
vn 0.000000 0.000000 -0.100000
vn 0.000000 0.000000 -0.100000
vn 0.000000 0.000000 -0.100000
vn 0.000000 0.000000 -0.100000
vn 0.000000 0.000000 -0.100000
vn 0.000000 0.000000 -0.100000
vn 0.000000 0.000000 -0.100000
vn 0.000000 0.000000 -0.100000
vn 0.000000 0.000000 -0.100000
vn 0.000000 0.000000 -0.100000
vn 0.000000 0.000000 -0.100000
vn 0.000000 0.000000 -0.100000
vn 0.000000 0.000000 -0.100000
vn 0.000000 0.000000 -0.100000
vn 0.000000 0.000000 -0.100000
vn 0.000000 0.000000 -0.100000
vn 0.000000 0.000000 -0.100000
vn 0.000000 0.000000 -0.100000
vn 0.000000 0.000000 -0.100000
vn 0.000000 0.000000 -0.100000
vn 0.000000 0.000000 -0.100000
vn 0.000000 0.000000 -0.100000
vn 0.000000 0.000000 -0.100000
vn 0.000000 0.000000 -0.100000
vn 0.000000 0.000000 -0.100000
vn 0.000000 0.000000 -0.100000
usemtl 0,83,135
f 2/1/1 3/2/2 1/3/3
f 1/3/3 3/2/2 4/4/4
f 1/5/5 5/6/6 2/7/7
f 2/7/7 5/6/6 6/8/8
f 2/7/7 6/8/8 8/9/9
f 8/9/9 6/8/8 7/10/10
f 1/11/11 4/12/12 5/13/13
f 5/13/13 4/12/12 9/14/14
f 5/15/15 9/16/16 6/17/17
f 6/17/17 9/16/16 10/18/18
f 3/19/19 2/20/20 11/21/21
f 11/21/21 2/20/20 8/22/22
f 6/23/23 10/24/24 7/25/25
f 7/25/25 10/24/24 12/26/26
f 13/27/27 14/28/28 16/29/29
f 16/29/29 14/28/28 15/30/30
f 11/31/31 13/32/32 3/33/33
f 3/33/33 13/32/32 16/34/34
f 3/33/33 16/34/34 4/35/35
f 4/35/35 16/34/34 17/36/36
f 4/35/35 17/36/36 9/37/37
f 9/37/37 17/36/36 10/38/38
f 10/38/38 17/36/36 18/39/39
f 10/38/38 18/39/39 12/40/40
f 19/41/41 18/42/42 20/43/43
f 20/43/43 18/42/42 17/44/44
f 15/45/30 14/46/28 58/47/45
f 58/47/45 14/46/28 21/48/46
f 58/47/45 21/48/46 57/49/47
f 57/49/47 21/48/46 22/50/48
f 57/49/47 22/50/48 56/51/49
f 56/51/49 22/50/48 23/52/50
f 56/51/49 23/52/50 55/53/51
f 55/53/51 23/52/50 24/54/52
f 55/53/51 24/54/52 54/55/53
f 54/55/53 24/54/52 25/56/54
f 54/55/53 25/56/54 53/57/55
f 53/57/55 25/56/54 26/58/56
f 53/57/55 26/58/56 52/59/57
f 52/59/57 26/58/56 27/60/58
f 52/59/57 27/60/58 51/61/59
f 51/61/59 27/60/58 28/62/60
f 51/61/59 28/62/60 50/63/61
f 50/63/61 28/62/60 29/64/62
f 50/63/61 29/64/62 49/65/63
f 49/65/63 29/64/62 30/66/64
f 49/65/63 30/66/64 48/67/65
f 48/67/65 30/66/64 31/68/66
f 48/67/65 31/68/66 47/69/67
f 47/69/67 31/68/66 32/70/68
f 47/69/67 32/70/68 46/71/69
f 46/71/69 32/70/68 33/72/70
f 46/71/69 33/72/70 45/73/71
f 45/73/71 33/72/70 34/74/72
f 45/73/71 34/74/72 44/75/73
f 44/75/73 34/74/72 35/76/74
f 44/75/73 35/76/74 43/77/75
f 43/77/75 35/76/74 36/78/76
f 43/77/75 36/78/76 42/79/77
f 42/79/77 36/78/76 37/80/78
f 42/79/77 37/80/78 41/81/79
f 41/81/79 37/80/78 38/82/80
f 41/81/79 38/82/80 40/83/81
f 40/83/81 38/82/80 39/84/82
f 40/83/81 39/84/82 20/85/43
f 20/85/43 39/84/82 19/86/41
f 58/87/83 57/88/84 15/89/85
f 15/89/85 57/88/84 56/90/86
f 15/89/85 56/90/86 55/91/87
f 55/91/87 54/92/88 15/89/85
f 15/89/85 54/92/88 53/93/89
f 15/89/85 53/93/89 52/94/90
f 52/94/90 51/95/91 15/89/85
f 15/89/85 51/95/91 50/96/92
f 15/89/85 50/96/92 49/97/93
f 48/98/94 20/99/95 49/97/93
f 49/97/93 20/99/95 17/100/96
f 49/97/93 17/100/96 15/89/85
f 15/89/85 17/100/96 16/101/97
f 48/98/94 47/102/98 20/99/95
f 20/99/95 47/102/98 46/103/99
f 20/99/95 46/103/99 45/104/100
f 45/104/100 44/105/101 20/99/95
f 20/99/95 44/105/101 43/106/102
f 20/99/95 43/106/102 42/107/103
f 42/107/103 41/108/104 20/99/95
f 20/99/95 41/108/104 40/109/105
f 39/110/106 38/111/107 19/112/108
f 19/112/108 38/111/107 37/113/109
f 19/112/108 37/113/109 36/114/110
f 36/114/110 35/115/111 19/112/108
f 19/112/108 35/115/111 12/116/112
f 19/112/108 12/116/112 18/117/113
f 35/115/111 34/118/114 12/116/112
f 12/116/112 34/118/114 33/119/115
f 12/116/112 33/119/115 32/120/116
f 32/120/116 31/121/117 12/116/112
f 12/116/112 31/121/117 30/122/118
f 12/116/112 30/122/118 11/123/119
f 11/123/119 30/122/118 29/124/120
f 11/123/119 29/124/120 28/125/121
f 28/125/121 27/126/122 11/123/119
f 11/123/119 27/126/122 26/127/123
f 11/123/119 26/127/123 25/128/124
f 11/123/119 25/128/124 14/129/125
f 14/129/125 25/128/124 24/130/126
f 14/129/125 24/130/126 23/131/127
f 23/131/127 22/132/128 14/129/125
f 14/129/125 22/132/128 21/133/129
f 14/129/125 13/134/130 11/123/119
f 8/135/131 7/136/132 11/123/119
f 11/123/119 7/136/132 12/116/112

# 58 vertices
# 136 texture params
# 132 normals
# 112 facets

# 1 groups
